<svg xmlns="http://www.w3.org/2000/svg" version="1.1" xmlns:xlink="http://www.w3.org/1999/xlink" xmlns:svgjs="http://svgjs.dev/svgjs" width="1500" height="303" viewBox="0 0 1500 303"><g transform="matrix(1,0,0,1,-0.9090909090909918,-0.5075797269398947)"><svg viewBox="0 0 396 80" data-background-color="#ffffff" preserveAspectRatio="xMidYMid meet" height="303" width="1500" xmlns="http://www.w3.org/2000/svg" xmlns:xlink="http://www.w3.org/1999/xlink"><g id="tight-bounds" transform="matrix(1,0,0,1,0.2400000000000091,0.13401444935706763)"><svg viewBox="0 0 395.52 79.73197110128586" height="79.73197110128586" width="395.52"><g><svg viewBox="0 0 483.3973086469533 97.4469565217391" height="79.73197110128586" width="395.52"><g transform="matrix(1,0,0,1,87.87730864695337,0)"><svg viewBox="0 0 395.5199999999999 97.4469565217391" height="97.4469565217391" width="395.5199999999999"><g id="textblocktransform"><svg viewBox="0 0 395.5199999999999 97.4469565217391" height="97.4469565217391" width="395.5199999999999" id="textblock"><g><svg viewBox="0 0 395.5199999999999 97.4469565217391" height="97.4469565217391" width="395.5199999999999"><g transform="matrix(1,0,0,1,0,0)"><svg width="395.5199999999999" viewBox="0.05 -41.75 189.73 46.75" height="97.4469565217391" data-palette-color="#000000"><path d="M7.8-24.05L7.8-24.05Q4.25-24.05 4.25-17.45L4.25-17.45 4.25-17.1Q4.25-16.45 3.95-16.45L3.95-16.45Q3.2-16.45 2.83-18.25 2.45-20.05 2.45-21.3L2.45-21.3Q2.45-23.35 3.38-24.95 4.3-26.55 6.25-26.55L6.25-26.55Q10.1-26.55 13.65-22.05L13.65-22.05Q16.65-25.55 20.08-29.13 23.5-32.7 25.4-34.5L25.4-34.5 27.3-36.35Q30.4-41 32.4-41L32.4-41Q32.9-41 32.9-40.55L32.9-40.55Q32.9-40.25 32.7-39.85L32.7-39.85Q28.3-31.2 24.65-20.35L24.65-20.35Q20.05-6.55 20.05 0.8L20.05 0.8Q20.05 3.1 20.6 4.15L20.6 4.15Q20.8 4.4 20.8 4.65L20.8 4.65Q20.8 5 20.2 5L20.2 5Q18.85 5 17.95 4.33 17.05 3.65 16.68 2.55 16.3 1.45 16.15 0.58 16-0.3 16-1.2L16-1.2Q16-2.7 16.55-5.65 17.1-8.6 17.1-9.95L17.1-9.95Q17.1-11.95 16.23-14.68 15.35-17.4 13.9-19.65L13.9-19.65Q12.3-17.45 10.98-15.25 9.65-13.05 9.1-12L9.1-12 8.6-10.9Q6.8-7.2 5.05-4.15 3.3-1.1 2.45 0.1L2.45 0.1 1.6 1.25Q1.05 1.9 0.6 1.9L0.6 1.9Q0.05 1.9 0.05 0.75L0.05 0.75Q0.2-6.3 12.85-21.1L12.85-21.1Q10.4-24.05 7.8-24.05ZM25.5-32.1L24.95-31.9Q19.45-27.1 14.65-20.65L14.65-20.65Q16.75-17.45 17.9-13.35L17.9-13.35Q18.05-12.9 18.15-12.9L18.15-12.9 18.4-13.35Q19.65-17.6 21.43-22.18 23.2-26.75 24.35-29.2L24.35-29.2 25.5-31.6Q25.65-31.9 25.65-32 25.65-32.1 25.5-32.1L25.5-32.1ZM39.35-4.85L39.35-4.85Q33.5 0.65 31.65 0.65L31.65 0.65Q30.8 0.65 30.8-0.25L30.8-0.25Q30.8-0.8 31.05-1.63 31.3-2.45 31.67-3.28 32.05-4.1 32.4-4.8 32.75-5.5 33.1-6.1 33.45-6.7 33.45-6.75L33.45-6.75Q34.2-8.1 35.7-10.53 37.2-12.95 38.1-14.53 39-16.1 39-16.45L39-16.45Q39-16.7 38.75-16.7L38.75-16.7 38.05-16.45Q35.75-14.8 32.55-11.33 29.35-7.85 27.3-5.2L27.3-5.2 25.25-2.6Q24.6-1.65 24.1-1.05 23.6-0.45 22.67 0.13 21.75 0.7 20.8 0.7L20.8 0.7Q20.1 0.7 20.1 0.3 20.1-0.1 21.05-2.02 22-3.95 22.95-5.7L22.95-5.7 23.9-7.4 28.8-16Q29.55-17.25 30.02-17.93 30.5-18.6 31.35-19.63 32.2-20.65 33.17-21.15 34.15-21.65 35.25-21.75L35.25-21.75Q35.65-21.75 35.65-21.4L35.65-21.4Q35.65-21.1 35.5-20.9L35.5-20.9Q34.35-19.1 31.97-14.95 29.6-10.8 28.95-9.55L28.95-9.55Q28.8-9.25 28.8-9.1L28.8-9.1Q28.8-9 28.9-9 29-9 29.4-9.3L29.4-9.3Q30.35-10.4 31.87-12.05 33.4-13.7 37.05-17.03 40.7-20.35 43.05-21.5L43.05-21.5Q43.6-21.75 44.1-21.75L44.1-21.75Q44.8-21.75 44.8-20.95L44.8-20.95Q44.4-18.6 40.95-12.9L40.95-12.9Q37.15-6.65 37.15-5.5L37.15-5.5Q37.15-5.1 37.5-5.1L37.5-5.1Q37.75-5.1 38.07-5.28 38.4-5.45 38.8-5.78 39.2-6.1 39.47-6.35 39.75-6.6 40.2-7.03 40.65-7.45 40.75-7.55L40.75-7.55Q42.85-9.65 46.3-13.6L46.3-13.6Q46.45-13.75 46.55-13.75 46.65-13.75 46.65-13.55L46.65-13.55Q46.65-12.6 45.9-11.7L45.9-11.7Q42.2-7.6 39.35-4.85ZM56.09-3.15L56.09-3.15Q51.95 0.65 50.4 0.65L50.4 0.65Q49.7 0.65 49.7-0.15L49.7-0.15Q49.7-1.15 50.57-3.2 51.45-5.25 52.34-6.8L52.34-6.8 53.25-8.35Q53.45-8.7 53.45-8.8 53.45-8.9 53.34-8.9L53.34-8.9Q53.15-8.9 52.59-8.35L52.59-8.35Q51.09-6.7 49.17-4.83 47.25-2.95 46.05-1.9L46.05-1.9 44.9-0.9Q42.95 0.6 41.9 0.6L41.9 0.6Q40.8 0.6 40.8-1.1L40.8-1.1Q40.8-1.95 41.27-3.7 41.75-5.45 42-6.05L42-6.05Q43.15-8.85 44.87-11.5 46.59-14.15 48.95-16.57 51.3-19 54.42-20.5 57.55-22 60.9-22L60.9-22Q63.7-22 63.7-21.15L63.7-21.15Q63.7-20.65 62.45-20.65L62.45-20.65Q57.84-20.65 53.82-16.73 49.8-12.8 47.3-7.7L47.3-7.7Q46.59-6.3 46.59-5.35L46.59-5.35Q46.59-4.8 46.95-4.8L46.95-4.8Q47.55-4.8 48.5-5.65L48.5-5.65Q49.09-6.2 50.12-7.1 51.15-8 53.45-10.55 55.75-13.1 57.09-15.3L57.09-15.3Q57.3-15.7 57.72-16.25 58.15-16.8 59.34-17.73 60.55-18.65 61.75-18.65L61.75-18.65Q62.4-18.65 62.4-18.3L62.4-18.3Q62.4-18.2 62.25-17.95L62.25-17.95Q62.05-17.55 61.12-15.95 60.2-14.35 59.4-12.93 58.59-11.5 57.7-9.83 56.8-8.15 56.27-6.95 55.75-5.75 55.75-5.35L55.75-5.35Q55.75-5.05 56-5.05L56-5.05Q56.75-5.05 59.65-7.95L59.65-7.95Q61.84-10.25 64.8-13.6L64.8-13.6Q64.95-13.75 65.05-13.75 65.15-13.75 65.15-13.55L65.15-13.55Q65.15-12.6 64.4-11.7L64.4-11.7Q59.5-6.25 56.09-3.15ZM71.84-5.7L71.84-5.7Q70.94-3.25 68.99-1.58 67.04 0.1 65.37 0.7 63.69 1.3 62.34 1.3L62.34 1.3Q58.69 1.3 58.69-1.55L58.69-1.55Q58.69-4.45 61.89-6.8L61.89-6.8Q63.39-7.9 65.14-8.25L65.14-8.25Q65.39-8.25 65.39-8.05L65.39-8.05Q65.39-7.95 65.29-7.85L65.29-7.85Q64.04-6.9 62.92-4.9 61.79-2.9 61.79-1.4 61.79 0.1 63.04 0.1L63.04 0.1Q64.04 0.1 65.02-0.73 65.99-1.55 66.49-2.4L66.49-2.4 66.99-3.2Q67.99-4.8 68.67-8.3 69.34-11.8 69.54-14.5L69.54-14.5 69.69-17.2Q69.69-17.6 69.54-17.6L69.54-17.6 69.34-17.5 64.39-11.7Q63.84-11.05 63.64-11.05L63.64-11.05Q63.39-11.05 63.39-11.4L63.39-11.4Q63.39-12.05 63.74-12.4L63.74-12.4 64.19-12.95Q69.89-19.35 70.69-20.7L70.69-20.7Q71.44-21.85 72.89-22.7L72.89-22.7Q74.29-23.5 76.19-23.5L76.19-23.5Q76.69-23.5 76.69-23.1L76.69-23.1Q76.69-22.85 76.29-22.65L76.29-22.65Q76.14-22.6 75.92-22.43 75.69-22.25 75.12-21.6 74.54-20.95 74.09-20.1 73.64-19.25 73.29-17.73 72.94-16.2 72.94-14.35L72.94-14.35Q72.94-8.6 71.84-5.7ZM82.39-7.55L82.39-7.55Q84.49-9.65 87.94-13.6L87.94-13.6Q88.09-13.75 88.19-13.75 88.29-13.75 88.29-13.55L88.29-13.55Q88.29-12.6 87.54-11.7L87.54-11.7Q83.84-7.6 80.99-4.85L80.99-4.85Q74.99 0.95 73.04 0.95L73.04 0.95Q72.34 0.95 72.34 0.05L72.34 0.05Q72.34-1 73.14-3.1 73.94-5.2 74.74-6.8L74.74-6.8 75.54-8.35Q76.69-10.4 79.34-15.35 81.99-20.3 84.47-24.7 86.94-29.1 89.14-32.65L89.14-32.65 85.19-32.65Q84.69-32.65 84.69-32.9 84.69-33.15 85.09-33.4 85.49-33.65 85.94-33.65L85.94-33.65Q87.04-33.65 89.79-33.7L89.79-33.7Q92.24-37.55 93.99-39.8L93.99-39.8Q95.54-41.75 96.14-41.75L96.14-41.75Q96.49-41.75 96.49-41.3L96.49-41.3Q96.49-40.25 94.59-36.8L94.59-36.8 92.89-33.7 98.04-33.7Q98.49-33.7 98.49-33.45L98.49-33.45Q98.49-32.65 97.04-32.65L97.04-32.65 92.34-32.65Q80.79-10.75 80.19-9.7L80.19-9.7Q78.09-5.85 78.09-4.7L78.09-4.7Q78.09-4.35 78.34-4.35L78.34-4.35Q79.04-4.35 82.39-7.55ZM97.74-3.15L97.74-3.15Q93.59 0.65 92.04 0.65L92.04 0.65Q91.34 0.65 91.34-0.15L91.34-0.15Q91.34-1.15 92.21-3.2 93.09-5.25 93.99-6.8L93.99-6.8 94.89-8.35Q95.09-8.7 95.09-8.8 95.09-8.9 94.99-8.9L94.99-8.9Q94.79-8.9 94.24-8.35L94.24-8.35Q92.74-6.7 90.81-4.83 88.89-2.95 87.69-1.9L87.69-1.9 86.54-0.9Q84.59 0.6 83.54 0.6L83.54 0.6Q82.44 0.6 82.44-1.1L82.44-1.1Q82.44-1.95 82.91-3.7 83.39-5.45 83.64-6.05L83.64-6.05Q84.79-8.85 86.51-11.5 88.24-14.15 90.59-16.57 92.94-19 96.06-20.5 99.19-22 102.54-22L102.54-22Q105.34-22 105.34-21.15L105.34-21.15Q105.34-20.65 104.09-20.65L104.09-20.65Q99.49-20.65 95.46-16.73 91.44-12.8 88.94-7.7L88.94-7.7Q88.24-6.3 88.24-5.35L88.24-5.35Q88.24-4.8 88.59-4.8L88.59-4.8Q89.19-4.8 90.14-5.65L90.14-5.65Q90.74-6.2 91.76-7.1 92.79-8 95.09-10.55 97.39-13.1 98.74-15.3L98.74-15.3Q98.94-15.7 99.36-16.25 99.79-16.8 100.99-17.73 102.19-18.65 103.39-18.65L103.39-18.65Q104.04-18.65 104.04-18.3L104.04-18.3Q104.04-18.2 103.89-17.95L103.89-17.95Q103.69-17.55 102.76-15.95 101.84-14.35 101.04-12.93 100.24-11.5 99.34-9.83 98.44-8.15 97.91-6.95 97.39-5.75 97.39-5.35L97.39-5.35Q97.39-5.05 97.64-5.05L97.64-5.05Q98.39-5.05 101.29-7.95L101.29-7.95Q103.49-10.25 106.44-13.6L106.44-13.6Q106.59-13.75 106.69-13.75 106.79-13.75 106.79-13.55L106.79-13.55Q106.79-12.6 106.04-11.7L106.04-11.7Q101.14-6.25 97.74-3.15ZM113.49-5.7L113.49-5.7Q112.59-3.25 110.64-1.58 108.69 0.1 107.01 0.7 105.34 1.3 103.99 1.3L103.99 1.3Q100.34 1.3 100.34-1.55L100.34-1.55Q100.34-4.45 103.54-6.8L103.54-6.8Q105.04-7.9 106.79-8.25L106.79-8.25Q107.04-8.25 107.04-8.05L107.04-8.05Q107.04-7.95 106.94-7.85L106.94-7.85Q105.69-6.9 104.56-4.9 103.44-2.9 103.44-1.4 103.44 0.1 104.69 0.1L104.69 0.1Q105.69 0.1 106.66-0.73 107.64-1.55 108.14-2.4L108.14-2.4 108.64-3.2Q109.64-4.8 110.31-8.3 110.99-11.8 111.19-14.5L111.19-14.5 111.34-17.2Q111.34-17.6 111.19-17.6L111.19-17.6 110.99-17.5 106.04-11.7Q105.49-11.05 105.29-11.05L105.29-11.05Q105.04-11.05 105.04-11.4L105.04-11.4Q105.04-12.05 105.39-12.4L105.39-12.4 105.84-12.95Q111.54-19.35 112.34-20.7L112.34-20.7Q113.09-21.85 114.54-22.7L114.54-22.7Q115.94-23.5 117.84-23.5L117.84-23.5Q118.34-23.5 118.34-23.1L118.34-23.1Q118.34-22.85 117.94-22.65L117.94-22.65Q117.79-22.6 117.56-22.43 117.34-22.25 116.76-21.6 116.19-20.95 115.74-20.1 115.29-19.25 114.94-17.73 114.59-16.2 114.59-14.35L114.59-14.35Q114.59-8.6 113.49-5.7ZM122.23-4.85L122.23-4.85Q116.38 0.65 114.73 0.65L114.73 0.65Q113.88 0.65 113.88-0.5 113.88-1.65 114.78-3.85 115.68-6.05 116.58-7.7L116.58-7.7 117.48-9.3Q121.28-15.95 123.23-18.85L123.23-18.85Q124.08-20.1 125.41-20.98 126.73-21.85 127.88-21.85L127.88-21.85Q128.28-21.85 128.28-21.5L128.28-21.5Q128.28-21.25 127.93-20.55L127.93-20.55Q127.33-19.45 124.98-15.3 122.63-11.15 122.18-10.3L122.18-10.3Q120.13-6.7 120.13-5.5L120.13-5.5Q120.13-5.05 120.43-5.05L120.43-5.05Q120.93-5.05 123.63-7.55L123.63-7.55Q125.73-9.65 129.18-13.6L129.18-13.6Q129.33-13.75 129.43-13.75 129.53-13.75 129.53-13.55L129.53-13.55Q129.53-12.6 128.78-11.7L128.78-11.7Q125.08-7.6 122.23-4.85ZM128.88-24.7L128.88-24.7Q127.63-24.7 127.63-26.2L127.63-26.2Q127.63-27.6 128.68-29.03 129.73-30.45 130.98-30.45L130.98-30.45Q132.48-30.45 132.48-28.75L132.48-28.75Q132.48-27.35 131.33-26.03 130.18-24.7 128.88-24.7ZM138.98-3.15L138.98-3.15Q134.83 0.65 133.28 0.65L133.28 0.65Q132.58 0.65 132.58-0.15L132.58-0.15Q132.58-1.15 133.46-3.2 134.33-5.25 135.23-6.8L135.23-6.8 136.13-8.35Q136.33-8.7 136.33-8.8 136.33-8.9 136.23-8.9L136.23-8.9Q136.03-8.9 135.48-8.35L135.48-8.35Q133.98-6.7 132.06-4.83 130.13-2.95 128.93-1.9L128.93-1.9 127.78-0.9Q125.83 0.6 124.78 0.6L124.78 0.6Q123.68 0.6 123.68-1.1L123.68-1.1Q123.68-1.95 124.16-3.7 124.63-5.45 124.88-6.05L124.88-6.05Q126.03-8.85 127.76-11.5 129.48-14.15 131.83-16.57 134.18-19 137.31-20.5 140.43-22 143.78-22L143.78-22Q146.58-22 146.58-21.15L146.58-21.15Q146.58-20.65 145.33-20.65L145.33-20.65Q140.73-20.65 136.71-16.73 132.68-12.8 130.18-7.7L130.18-7.7Q129.48-6.3 129.48-5.35L129.48-5.35Q129.48-4.8 129.83-4.8L129.83-4.8Q130.43-4.8 131.38-5.65L131.38-5.65Q131.98-6.2 133.01-7.1 134.03-8 136.33-10.55 138.63-13.1 139.98-15.3L139.98-15.3Q140.18-15.7 140.61-16.25 141.03-16.8 142.23-17.73 143.43-18.65 144.63-18.65L144.63-18.65Q145.28-18.65 145.28-18.3L145.28-18.3Q145.28-18.2 145.13-17.95L145.13-17.95Q144.93-17.55 144.01-15.95 143.08-14.35 142.28-12.93 141.48-11.5 140.58-9.83 139.68-8.15 139.16-6.95 138.63-5.75 138.63-5.35L138.63-5.35Q138.63-5.05 138.88-5.05L138.88-5.05Q139.63-5.05 142.53-7.95L142.53-7.95Q144.73-10.25 147.68-13.6L147.68-13.6Q147.83-13.75 147.93-13.75 148.03-13.75 148.03-13.55L148.03-13.55Q148.03-12.6 147.28-11.7L147.28-11.7Q142.38-6.25 138.98-3.15ZM169.03-37L169.03-37Q167.18-35.55 164.55-31.23 161.93-26.9 158.75-20.65 155.58-14.4 155.48-14.2L155.48-14.2Q155.13-13.6 154.23-11.9 153.33-10.2 152.8-9.22 152.28-8.25 151.25-6.58 150.23-4.9 149.43-3.85 148.63-2.8 147.48-1.53 146.33-0.25 145.25 0.48 144.18 1.2 142.83 1.7 141.48 2.2 140.13 2.2L140.13 2.2Q138.98 2.2 138.98 1.75L138.98 1.75Q138.98 1.6 139.13 1.45 139.28 1.3 139.43 1.2L139.43 1.2 139.58 1.15Q141.73-0.2 144.88-4.65 148.03-9.1 150.13-12.9L150.13-12.9 152.18-16.65Q154.48-21.05 156.7-24.73 158.93-28.4 160.45-30.45 161.98-32.5 163.15-33.93 164.33-35.35 164.93-35.85L164.93-35.85 165.48-36.35Q165.63-36.5 165.63-36.65L165.63-36.65Q165.63-37.1 164.13-37.1L164.13-37.1Q162.53-37.1 161.03-36.3 159.53-35.5 158.5-34.35 157.48-33.2 156.68-32.02 155.88-30.85 155.53-30.05L155.53-30.05 155.13-29.25Q154.93-28.45 154.58-28.45L154.58-28.45Q153.73-28.45 153.73-30.65L153.73-30.65Q153.73-33.35 155.5-35.2 157.28-37.05 159.75-37.77 162.23-38.5 165.13-38.5L165.13-38.5Q166.88-38.5 168.98-38.2L168.98-38.2Q169.58-38.1 169.58-37.75 169.58-37.4 169.03-37ZM175.73-16.35L175.73-16.35Q176.13-16.35 176.5-15.58 176.88-14.8 176.88-14.1L176.88-14.1Q176.88-13.5 176.7-12.9 176.53-12.3 176.38-12L176.38-12 176.18-11.65Q173.73-6.9 168.9-2.9 164.08 1.1 159.22 1.1L159.22 1.1Q156.68 1.1 155.47-0.73 154.28-2.55 154.28-5.4L154.28-5.4Q154.28-10.4 157.15-15.63 160.03-20.85 164.43-25.15L164.43-25.15Q162.53-25.35 160.88-26.6 159.22-27.85 159.22-29.65L159.22-29.65Q159.22-32.4 163.72-35.1 168.22-37.8 174.88-37.8L174.88-37.8Q176.98-37.8 180.2-37.27 183.43-36.75 185.18-36.75L185.18-36.75Q187.98-36.75 189.18-37.65L189.18-37.65Q189.38-37.7 189.53-37.7L189.53-37.7Q189.78-37.7 189.78-37.5 189.78-37.3 189.58-36.95L189.58-36.95Q188.58-35.35 186.88-34.35 185.18-33.35 183.13-33.35L183.13-33.35Q180.93-33.35 176.65-34.5 172.38-35.65 170.03-35.65L170.03-35.65Q167.38-35.65 164.97-34.15 162.58-32.65 162.58-30.05L162.58-30.05Q162.58-28.95 163.18-27.9 163.78-26.85 164.38-26.35L164.38-26.35 164.97-25.85 165.08-25.75Q170.93-31.3 175.58-32.35L175.58-32.35Q175.83-32.4 176.18-32.4L176.18-32.4Q176.68-32.4 176.68-32.1L176.68-32.1Q176.68-31.7 175.93-31.4L175.93-31.4Q174.53-30.85 171.93-28.55 169.33-26.25 166.43-22.88 163.53-19.5 161.4-14.83 159.28-10.15 159.28-5.8L159.28-5.8Q159.28-1.35 162.33-1.35L162.33-1.35Q164.53-1.35 166.65-2.78 168.78-4.2 170.4-6.5 172.03-8.8 173.22-11.15 174.43-13.5 175.23-15.9L175.23-15.9Q175.38-16.35 175.73-16.35Z" opacity="1" transform="matrix(1,0,0,1,0,0)" fill="#000000" class="wordmark-text-0" data-fill-palette-color="primary" id="text-0"></path></svg></g></svg></g></svg></g></svg></g><g transform="matrix(1,0,0,1,0,11.01540396521738)"><svg viewBox="0 0 64.87242093912728 75.41614859130434" height="75.41614859130434" width="64.87242093912728"><g><svg xmlns="http://www.w3.org/2000/svg" xmlns:xlink="http://www.w3.org/1999/xlink" version="1.1" x="0" y="0" viewBox="12.042236580978656 5.8722138014837135 75.91576341902135 88.25436775056542" enable-background="new 0 0 100 100" xml:space="preserve" height="75.41614859130434" width="64.87242093912728" class="icon-icon-0" data-fill-palette-color="accent" id="icon-0"><g fill="#000000" data-fill-palette-color="accent"><g fill="#000000" data-fill-palette-color="accent"><path fill-rule="evenodd" clip-rule="evenodd" d="M87.958 37.902V18.893C85.466 30.614 73.554 34.983 63.307 35.726 64.072 37.222 66.727 42.464 68.435 45.777 68.434 45.777 81.922 44.081 87.958 37.902" fill="#000000" data-fill-palette-color="accent"></path><path fill-rule="evenodd" clip-rule="evenodd" d="M58.671 29.835C60.831 29.749 77.796 28.736 82.768 18.467 78.018 18.413 72.666 19.018 67.188 20.315 49.64 24.474 38.153 33.687 38.153 39.767 38.153 39.997 38.17 40.225 38.204 40.441 38.439 42.005 39.452 43.321 41.22 44.352 45.953 47.112 53.974 47.919 62.653 46.725L53.03 29.659 54.321 29.682z" fill="#000000" data-fill-palette-color="accent"></path><path fill-rule="evenodd" clip-rule="evenodd" d="M66.507 76.14C68.27 79.591 72.53 87.581 75.497 93.13A75.5 75.5 0 0 0 87.958 89.936V58.262C83.777 63.585 76.991 70.789 66.507 76.14" fill="#000000" data-fill-palette-color="accent"></path><path fill-rule="evenodd" clip-rule="evenodd" d="M59.333 93.999C62.288 94.18 65.231 94.164 68.158 93.979A29307 29307 0 0 0 58.388 76.454L56.845 73.573 57.638 73.273C72.238 68.236 82.995 55.902 87.958 48.947V48.83C79.125 57.84 65.05 64.669 50.925 67.914 36.842 71.152 23.052 70.843 14.655 65.734 16.212 69.715 17.755 72.482 20.604 75.925 29.419 86.594 43.173 93.013 59.333 93.999" fill="#000000" data-fill-palette-color="accent"></path><path fill-rule="evenodd" clip-rule="evenodd" d="M16.407 58.962C22.811 63.847 35.519 65.066 48.613 62.056 58.759 59.725 70.799 54.586 78.774 48.995A77 77 0 0 1 74.602 50.105C60.059 53.551 42.888 53.964 36.085 49.789 32.8 47.768 30.811 45.032 30.34 41.868 28.892 32.169 46.112 19.276 67.192 14.28 72.295 13.073 77.129 12.412 81.505 12.261 75.114 10.559 66.82 10.681 57.841 12.742 34.892 18.016 13.707 30.234 12.121 47.747 11.817 51.109 12.224 55.776 16.407 58.962" fill="#000000" data-fill-palette-color="accent"></path></g><path fill-rule="evenodd" clip-rule="evenodd" d="M26.526 18.335S41.276 9.078 65.8 7.26C65.8 7.26 51.24 2.72 21.925 10.063z" fill="#000000" data-fill-palette-color="accent"></path></g></svg></g></svg></g></svg></g><defs></defs></svg><rect width="395.52" height="79.73197110128586" fill="none" stroke="none" visibility="hidden"></rect></g></svg></g></svg>